<svg width="17" height="16" viewBox="0 0 17 16" fill="none" xmlns="http://www.w3.org/2000/svg">
<g clip-path="url(#clip0_17885_1336)">
<path d="M11.5781 0C11.6153 0 11.6526 0 11.6919 0C11.7832 1.12835 11.3526 1.97146 10.8291 2.582C10.3155 3.18834 9.61225 3.7764 8.47476 3.68717C8.39888 2.57498 8.83027 1.79441 9.35299 1.18526C9.83778 0.617573 10.7265 0.112414 11.5781 0Z" fill="#9CA3AF"/>
<path d="M15.0215 11.7446C15.0215 11.7558 15.0215 11.7657 15.0215 11.7762C14.7018 12.7444 14.2458 13.5741 13.6894 14.3442C13.1814 15.0432 12.5589 15.984 11.4474 15.984C10.487 15.984 9.84903 15.3664 8.8647 15.3496C7.82347 15.3327 7.25086 15.866 6.29886 16.0001C6.18996 16.0001 6.08106 16.0001 5.97426 16.0001C5.27519 15.899 4.71101 15.3453 4.3 14.8465C3.08804 13.3725 2.15149 11.4685 1.97725 9.03189C1.97725 8.79302 1.97725 8.55484 1.97725 8.31596C2.05102 6.57214 2.89834 5.15432 4.02459 4.46719C4.61897 4.10185 5.43608 3.7906 6.34593 3.92971C6.73587 3.99013 7.13423 4.12363 7.48342 4.25571C7.81434 4.38288 8.22816 4.60841 8.6202 4.59647C8.88578 4.58874 9.14995 4.45033 9.41764 4.35267C10.2017 4.06953 10.9704 3.74493 11.9835 3.89739C13.2011 4.08147 14.0652 4.62246 14.5992 5.45714C13.5692 6.11265 12.7549 7.10049 12.894 8.7874C13.0177 10.3197 13.9086 11.2162 15.0215 11.7446Z" fill="#9CA3AF"/>
</g>
<defs>
<clipPath id="clip0_17885_1336">
<rect width="16" height="16" fill="white" transform="translate(0.499023)"/>
</clipPath>
</defs>
</svg>
