<svg width="16" height="16" viewBox="0 0 16 16" fill="none" xmlns="http://www.w3.org/2000/svg">
<g clip-path="url(#clip0_17885_2583)">
<path d="M15.9914 8.14946C15.9914 7.49394 15.9369 7.01559 15.8191 6.51953H8.15836V9.47819H12.655C12.5644 10.2135 12.0749 11.3208 10.9869 12.0648L10.9717 12.1639L13.3939 13.9973L13.5617 14.0137C15.1029 12.6229 15.9914 10.5766 15.9914 8.14946Z" fill="#4285F4"/>
<path d="M8.15835 15.945C10.3614 15.945 12.2108 15.2363 13.5617 14.0139L10.9869 12.065C10.2979 12.5345 9.37317 12.8623 8.15835 12.8623C6.00067 12.8623 4.16936 11.4716 3.51654 9.54932L3.42086 9.55726L0.902231 11.4618L0.869293 11.5513C2.21104 14.1556 4.9671 15.945 8.15835 15.945Z" fill="#34A853"/>
<path d="M3.51659 9.54936C3.34434 9.0533 3.24465 8.52176 3.24465 7.97257C3.24465 7.42332 3.34434 6.89184 3.50752 6.39578L3.50296 6.29013L0.952773 4.35498L0.869336 4.39376C0.316336 5.47449 -0.000976562 6.68811 -0.000976562 7.97257C-0.000976562 9.25703 0.316336 10.4706 0.869336 11.5513L3.51659 9.54936Z" fill="#FBBC05"/>
<path d="M8.15835 3.08269C9.69048 3.08269 10.724 3.72934 11.3133 4.26974L13.616 2.07285C12.2018 0.788397 10.3614 0 8.15835 0C4.9671 0 2.21104 1.78937 0.869293 4.39371L3.50748 6.39573C4.16936 4.47347 6.00067 3.08269 8.15835 3.08269Z" fill="#EB4335"/>
</g>
<defs>
<clipPath id="clip0_17885_2583">
<rect width="16" height="16" fill="white" transform="translate(-0.000976562)"/>
</clipPath>
</defs>
</svg>
