<svg width="20" height="20" viewBox="0 0 20 20" fill="none" xmlns="http://www.w3.org/2000/svg">
<path d="M13.7701 2.5C15.0317 2.51421 16.2325 3.04828 17.0929 3.97787C17.9532 4.90746 18.3979 6.15142 18.3246 7.38248L18.3235 12.58C18.3979 13.8486 17.9532 15.0925 17.0929 16.0221C16.2325 16.9517 15.0317 17.4858 13.7631 17.5H6.21253C3.57125 17.5 1.66571 15.3654 1.66571 12.6175V7.38248C1.66571 4.63459 3.57125 2.5 6.21253 2.5H13.7701ZM13.756 3.77365H6.21253C4.30137 3.77365 2.93024 5.30963 2.93024 7.38248V12.6175C2.93024 14.6904 4.30137 16.2263 6.21253 16.2263H13.756C14.6718 16.2161 15.5434 15.8284 16.1679 15.1536C16.7923 14.4789 17.1152 13.5759 17.06 12.6175L17.0611 7.34491C17.1152 6.42406 16.7923 5.52111 16.1679 4.84635C15.5434 4.1716 14.6718 3.78393 13.756 3.77365ZM15.0191 7.19864C15.2174 7.44827 15.199 7.80218 14.9892 8.02959L14.9206 8.09379L11.4981 10.853C10.6668 11.5056 9.51828 11.5382 8.65158 10.9479L8.51716 10.8496L5.07176 8.09545C4.79824 7.8768 4.75248 7.47622 4.96955 7.20071C5.16689 6.95026 5.51351 6.88939 5.7804 7.04467L5.85785 7.09776L9.29889 9.84843C9.68469 10.1513 10.2136 10.1746 10.6164 9.92235L10.7143 9.85354L14.1304 7.09942C14.403 6.87963 14.8009 6.92405 15.0191 7.19864Z" fill="#9CA3AF"/>
</svg>
