<svg width="20" height="20" viewBox="0 0 20 20" fill="none" xmlns="http://www.w3.org/2000/svg">
<path fill-rule="evenodd" clip-rule="evenodd" d="M10.2402 3.33751L10.0017 3.3335C6.55092 3.3335 3.44107 5.7694 1.71745 9.75503C1.64977 9.91153 1.64977 10.0888 1.71745 10.2453L1.83689 10.5142C3.53867 14.2444 6.47956 16.5538 9.75985 16.6628L9.99835 16.6668C13.4491 16.6668 16.559 14.2309 18.2826 10.2453C18.3511 10.0868 18.3502 9.90716 18.2801 9.74936L18.1641 9.48819C16.4581 5.75092 13.516 3.44638 10.2402 3.33751ZM10.0075 4.57469L10.2066 4.57897L10.4292 4.59055C13.0935 4.7792 15.5438 6.75478 17.0242 9.99942L17.0164 10.0194C15.499 13.3339 12.9641 15.3212 10.2158 15.421L10.0034 15.4242L9.78914 15.4213L9.5672 15.4097C6.98562 15.2269 4.60534 13.3622 3.11598 10.2999L2.97503 9.99942L3.10551 9.722C4.67601 6.47779 7.24293 4.57539 10.0075 4.57469ZM9.9996 6.76139C8.19927 6.76139 6.74044 8.21112 6.74044 10.0003C6.74044 11.7889 8.19943 13.2385 9.9996 13.2385C11.7999 13.2385 13.2596 11.7888 13.2596 10.0003C13.2596 8.21121 11.8 6.76139 9.9996 6.76139ZM9.9996 8.00331C11.1097 8.00331 12.0096 8.89716 12.0096 10.0003C12.0096 11.1028 11.1096 11.9965 9.9996 11.9965C8.88978 11.9965 7.99044 11.103 7.99044 10.0003C7.99044 8.89695 8.88968 8.00331 9.9996 8.00331Z" fill="#9CA3AF"/>
</svg>
