<svg width="375" height="812" viewBox="0 0 375 812" fill="none" xmlns="http://www.w3.org/2000/svg">
<g clip-path="url(#clip0_1780_7013)">
<rect width="375" height="812" fill="#7E2DFC"/>
<rect width="375" height="812" fill="#EAD1FD"/>
<mask id="mask0_1780_7013" style="mask-type:alpha" maskUnits="userSpaceOnUse" x="0" y="0" width="375" height="812">
<rect width="375" height="812" fill="#EAD1FD"/>
</mask>
<g mask="url(#mask0_1780_7013)">
<path d="M-346.727 1224.56L484.625 1006.19C491.232 1004.46 497.433 1001.44 502.874 997.308C508.314 993.178 512.888 988.015 516.333 982.117C519.778 976.218 522.028 969.698 522.953 962.93C523.878 956.162 523.46 949.278 521.724 942.672L287.714 52.7877C284.2 39.4448 275.531 28.0435 263.613 21.0905C251.695 14.1375 237.504 12.2019 224.159 15.7096L-607.192 234.082C-613.799 235.815 -620.001 238.833 -625.442 242.964C-630.883 247.094 -635.456 252.255 -638.902 258.154C-642.347 264.053 -644.597 270.572 -645.521 277.341C-646.446 284.109 -646.028 290.994 -644.291 297.6L-410.279 1187.48C-406.766 1200.83 -398.097 1212.23 -386.18 1219.18C-374.263 1226.13 -360.071 1228.07 -346.727 1224.56Z" fill="#D1A4FC"/>
<path d="M466.051 1387.92L928.974 663.748C932.654 657.994 935.165 651.57 936.362 644.845C937.56 638.12 937.421 631.226 935.953 624.555C934.485 617.884 931.717 611.567 927.807 605.966C923.897 600.365 918.922 595.589 913.166 591.911L137.698 96.5529C126.068 89.1274 111.966 86.6242 98.491 89.5941C85.0163 92.5641 73.2727 100.763 65.8423 112.389L-397.081 836.562C-400.761 842.316 -403.272 848.739 -404.47 855.464C-405.667 862.189 -405.528 869.083 -404.06 875.754C-402.592 882.425 -399.824 888.742 -395.914 894.343C-392.005 899.944 -387.03 904.72 -381.274 908.398L394.197 1403.76C405.828 1411.19 419.93 1413.69 433.404 1410.72C446.878 1407.75 458.621 1399.55 466.051 1387.92Z" fill="#5415C6"/>
<path d="M-306.838 1477.72L524.203 1259.32C530.809 1257.58 537.008 1254.56 542.447 1250.43C547.886 1246.3 552.458 1241.13 555.901 1235.24C559.345 1229.34 561.593 1222.82 562.517 1216.05C563.441 1209.28 563.023 1202.4 561.287 1195.79L327.364 305.792C323.856 292.45 315.192 281.048 303.278 274.094C291.363 267.139 277.175 265.202 263.833 268.709L-567.206 487.109C-580.548 490.615 -591.95 499.278 -598.905 511.191C-605.86 523.104 -607.798 537.293 -604.292 550.635L-370.367 1440.63C-366.86 1453.98 -358.196 1465.38 -346.282 1472.33C-334.368 1479.29 -320.18 1481.22 -306.838 1477.72Z" fill="#3E0FA6"/>
</g>
</g>
<defs>
<clipPath id="clip0_1780_7013">
<rect width="375" height="812" fill="white"/>
</clipPath>
</defs>
</svg>
